G75*
%MOIN*%
%OFA0B0*%
%FSLAX25Y25*%
%IPPOS*%
%LPD*%
%AMOC8*
5,1,8,0,0,1.08239X$1,22.5*
%
%ADD10C,0.00000*%
%ADD11OC8,0.10000*%
%ADD12R,0.10000X0.10000*%
%ADD13R,0.07087X0.06299*%
%ADD14R,0.07400X0.07400*%
%ADD15C,0.07400*%
%ADD16R,0.07098X0.06299*%
%ADD17C,0.06000*%
%ADD18C,0.07600*%
%ADD19R,0.05150X0.05150*%
%ADD20C,0.01000*%
%ADD21C,0.04000*%
D10*
X0001000Y0001000D02*
X0001000Y0315961D01*
X0394701Y0315961D01*
X0394701Y0001000D01*
X0001000Y0001000D01*
D11*
X0364425Y0270528D03*
D12*
X0364425Y0211472D03*
D13*
X0106000Y0186512D03*
X0106000Y0175488D03*
X0106000Y0146512D03*
X0106000Y0135488D03*
X0106000Y0106512D03*
X0106000Y0095488D03*
X0076000Y0095488D03*
X0076000Y0106512D03*
X0106000Y0071512D03*
X0106000Y0060488D03*
D14*
X0166000Y0301500D03*
D15*
X0176000Y0300500D03*
X0186000Y0301500D03*
X0196000Y0300500D03*
D16*
X0106000Y0221598D03*
X0106000Y0210402D03*
D17*
X0327100Y0210200D02*
X0327100Y0216200D01*
X0344900Y0216200D02*
X0344900Y0210200D01*
X0344900Y0191800D02*
X0344900Y0185800D01*
X0327100Y0185800D02*
X0327100Y0191800D01*
X0327100Y0166200D02*
X0327100Y0160200D01*
X0344900Y0160200D02*
X0344900Y0166200D01*
X0344900Y0141800D02*
X0344900Y0135800D01*
X0327100Y0135800D02*
X0327100Y0141800D01*
X0327100Y0116200D02*
X0327100Y0110200D01*
X0344900Y0110200D02*
X0344900Y0116200D01*
X0344900Y0091800D02*
X0344900Y0085800D01*
X0327100Y0085800D02*
X0327100Y0091800D01*
X0327100Y0066200D02*
X0327100Y0060200D01*
X0344900Y0060200D02*
X0344900Y0066200D01*
X0344900Y0235800D02*
X0344900Y0241800D01*
X0327100Y0241800D02*
X0327100Y0235800D01*
D18*
X0115843Y0284504D03*
X0106000Y0284504D03*
X0096157Y0284504D03*
X0096157Y0297496D03*
X0106000Y0297496D03*
X0115843Y0297496D03*
D19*
X0171157Y0041000D03*
X0190843Y0041000D03*
D20*
X0200800Y0089200D02*
X0167500Y0122500D01*
X0106300Y0061300D01*
X0106000Y0060488D01*
X0106000Y0071512D02*
X0106300Y0072100D01*
X0106300Y0094600D01*
X0106000Y0095488D01*
X0105400Y0095500D01*
X0100900Y0095500D01*
X0100900Y0139600D01*
X0105400Y0144100D01*
X0105400Y0145900D01*
X0106000Y0146512D01*
X0106300Y0146800D01*
X0106300Y0174700D01*
X0106000Y0175488D01*
X0106300Y0175600D01*
X0113500Y0175600D01*
X0195400Y0257500D01*
X0195400Y0299800D01*
X0196000Y0300500D01*
X0196300Y0299800D01*
X0266500Y0299800D01*
X0326800Y0239500D01*
X0327100Y0238800D01*
X0327700Y0238600D01*
X0327700Y0220600D01*
X0346600Y0220600D01*
X0355600Y0211600D01*
X0363700Y0211600D01*
X0364425Y0211472D01*
X0327700Y0213400D02*
X0327100Y0213200D01*
X0327700Y0213400D02*
X0327700Y0220600D01*
X0272800Y0231400D02*
X0268300Y0226900D01*
X0268300Y0208900D01*
X0315100Y0136000D02*
X0342100Y0163000D01*
X0344800Y0163000D01*
X0344900Y0163200D01*
X0327100Y0138800D02*
X0326800Y0138700D01*
X0320500Y0138700D01*
X0314200Y0132400D01*
X0169300Y0132400D01*
X0131500Y0132400D01*
X0106300Y0107200D01*
X0106000Y0106512D01*
X0100900Y0095500D02*
X0076600Y0095500D01*
X0076000Y0095488D01*
X0076000Y0106512D02*
X0076600Y0107200D01*
X0076600Y0192700D01*
X0105400Y0221500D01*
X0106000Y0221598D01*
X0105400Y0222400D01*
X0096400Y0231400D01*
X0096400Y0284500D01*
X0096157Y0284504D01*
X0096157Y0297496D02*
X0096400Y0298000D01*
X0099100Y0298000D01*
X0104500Y0303400D01*
X0163900Y0303400D01*
X0165700Y0301600D01*
X0166000Y0301500D01*
X0175600Y0299800D02*
X0176000Y0300500D01*
X0175600Y0299800D02*
X0175600Y0281800D01*
X0106300Y0212500D01*
X0106300Y0210700D01*
X0106000Y0210402D01*
X0106300Y0187300D02*
X0106000Y0186512D01*
X0106300Y0187300D02*
X0112600Y0187300D01*
X0179200Y0253900D01*
X0186400Y0253900D01*
X0106300Y0136000D02*
X0106000Y0135488D01*
X0106300Y0136000D02*
X0315100Y0136000D01*
X0326800Y0089200D02*
X0327100Y0088800D01*
X0326800Y0089200D02*
X0200800Y0089200D01*
D21*
X0167500Y0122500D03*
X0169300Y0132400D03*
X0268300Y0208900D03*
X0272800Y0231400D03*
X0186400Y0253900D03*
M02*
