%
M48
M72
T01C0.0240
T02C0.0315
T03C0.0394
T04C0.0400
%
T01
X16750Y12250
X16930Y13240
X26830Y20890
X27280Y23140
X18640Y25390
T02
X19084Y4100
X17116Y4100
T03
X36443Y21147
X36443Y27053
X11584Y28450
X10600Y28450
X9616Y28450
X9616Y29750
X10600Y29750
X11584Y29750
T04
X16600Y30150
X17600Y30050
X18600Y30150
X19600Y30050
X32710Y23880
X34490Y23880
X34490Y21320
X32710Y21320
X32710Y18880
X34490Y18880
X34490Y16320
X32710Y16320
X32710Y13880
X34490Y13880
X34490Y11320
X32710Y11320
X32710Y8880
X34490Y8880
X34490Y6320
X32710Y6320
M30
