G75*
%MOIN*%
%OFA0B0*%
%FSLAX25Y25*%
%IPPOS*%
%LPD*%
%AMOC8*
5,1,8,0,0,1.08239X$1,22.5*
%
%ADD10C,0.00000*%
%ADD11C,0.00600*%
%ADD12OC8,0.10000*%
%ADD13R,0.10000X0.10000*%
%ADD14R,0.07400X0.07400*%
%ADD15C,0.07400*%
%ADD16R,0.04331X0.10551*%
%ADD17C,0.06000*%
%ADD18R,0.04724X0.01181*%
%ADD19C,0.07600*%
%ADD20R,0.05150X0.05150*%
%ADD21C,0.01000*%
%ADD22C,0.04000*%
D10*
X0001000Y0001000D02*
X0001000Y0315961D01*
X0394701Y0315961D01*
X0394701Y0001000D01*
X0001000Y0001000D01*
D11*
X0021632Y0211063D02*
X0022700Y0212130D01*
X0022700Y0213198D01*
X0021632Y0214266D01*
X0016295Y0214266D01*
X0016295Y0215333D02*
X0016295Y0213198D01*
X0019497Y0217508D02*
X0021632Y0217508D01*
X0022700Y0218576D01*
X0022700Y0220711D01*
X0021632Y0221779D01*
X0019497Y0221779D01*
X0018430Y0220711D01*
X0018430Y0218576D01*
X0019497Y0217508D01*
X0018430Y0223954D02*
X0018430Y0227157D01*
X0019497Y0228224D01*
X0022700Y0228224D01*
X0021632Y0230399D02*
X0020565Y0231467D01*
X0020565Y0234670D01*
X0019497Y0234670D02*
X0022700Y0234670D01*
X0022700Y0231467D01*
X0021632Y0230399D01*
X0018430Y0231467D02*
X0018430Y0233602D01*
X0019497Y0234670D01*
X0018430Y0236845D02*
X0018430Y0238980D01*
X0017362Y0237912D02*
X0021632Y0237912D01*
X0022700Y0238980D01*
X0022700Y0241142D02*
X0016295Y0241142D01*
X0018430Y0242209D02*
X0018430Y0244345D01*
X0019497Y0245412D01*
X0022700Y0245412D01*
X0021632Y0247587D02*
X0020565Y0248655D01*
X0020565Y0251858D01*
X0019497Y0251858D02*
X0022700Y0251858D01*
X0022700Y0248655D01*
X0021632Y0247587D01*
X0018430Y0248655D02*
X0018430Y0250790D01*
X0019497Y0251858D01*
X0018430Y0254033D02*
X0018430Y0257236D01*
X0019497Y0258303D01*
X0022700Y0258303D01*
X0022700Y0254033D02*
X0018430Y0254033D01*
X0018430Y0242209D02*
X0019497Y0241142D01*
X0018430Y0223954D02*
X0022700Y0223954D01*
X0022700Y0266924D02*
X0016295Y0266924D01*
X0016295Y0271194D02*
X0022700Y0271194D01*
X0020565Y0269059D01*
X0022700Y0266924D01*
X0022700Y0273369D02*
X0022700Y0275505D01*
X0022700Y0274437D02*
X0018430Y0274437D01*
X0018430Y0273369D01*
X0016295Y0274437D02*
X0015227Y0274437D01*
X0016295Y0277666D02*
X0016295Y0278734D01*
X0022700Y0278734D01*
X0022700Y0277666D02*
X0022700Y0279802D01*
X0022700Y0281963D02*
X0022700Y0285166D01*
X0021632Y0286234D01*
X0020565Y0285166D01*
X0020565Y0283031D01*
X0019497Y0281963D01*
X0018430Y0283031D01*
X0018430Y0286234D01*
X0019497Y0288409D02*
X0021632Y0288409D01*
X0022700Y0289476D01*
X0022700Y0291612D01*
X0021632Y0292679D01*
X0019497Y0292679D01*
X0018430Y0291612D01*
X0018430Y0289476D01*
X0019497Y0288409D01*
X0018430Y0294854D02*
X0018430Y0298057D01*
X0019497Y0299125D01*
X0022700Y0299125D01*
X0022700Y0294854D02*
X0018430Y0294854D01*
D12*
X0364425Y0270528D03*
D13*
X0364425Y0211472D03*
D14*
X0166000Y0301500D03*
D15*
X0176000Y0300500D03*
X0186000Y0301500D03*
X0196000Y0300500D03*
D16*
X0254307Y0234465D03*
X0261000Y0234465D03*
X0267693Y0234465D03*
X0267693Y0217535D03*
X0261000Y0217535D03*
X0254307Y0217535D03*
X0254307Y0184465D03*
X0261000Y0184465D03*
X0267693Y0184465D03*
X0267693Y0167535D03*
X0261000Y0167535D03*
X0254307Y0167535D03*
X0254307Y0134465D03*
X0261000Y0134465D03*
X0267693Y0134465D03*
X0267693Y0117535D03*
X0261000Y0117535D03*
X0254307Y0117535D03*
X0254307Y0084465D03*
X0261000Y0084465D03*
X0267693Y0084465D03*
X0267693Y0067535D03*
X0261000Y0067535D03*
X0254307Y0067535D03*
D17*
X0327100Y0066200D02*
X0327100Y0060200D01*
X0344900Y0060200D02*
X0344900Y0066200D01*
X0344900Y0085800D02*
X0344900Y0091800D01*
X0327100Y0091800D02*
X0327100Y0085800D01*
X0327100Y0110200D02*
X0327100Y0116200D01*
X0344900Y0116200D02*
X0344900Y0110200D01*
X0344900Y0135800D02*
X0344900Y0141800D01*
X0327100Y0141800D02*
X0327100Y0135800D01*
X0327100Y0160200D02*
X0327100Y0166200D01*
X0344900Y0166200D02*
X0344900Y0160200D01*
X0344900Y0185800D02*
X0344900Y0191800D01*
X0327100Y0191800D02*
X0327100Y0185800D01*
X0327100Y0210200D02*
X0327100Y0216200D01*
X0344900Y0216200D02*
X0344900Y0210200D01*
X0344900Y0235800D02*
X0344900Y0241800D01*
X0327100Y0241800D02*
X0327100Y0235800D01*
D18*
X0192417Y0254485D03*
X0192417Y0257043D03*
X0192417Y0259602D03*
X0192417Y0262161D03*
X0192417Y0264720D03*
X0192417Y0267280D03*
X0192417Y0269839D03*
X0192417Y0272398D03*
X0192417Y0274956D03*
X0192417Y0277515D03*
X0169582Y0277515D03*
X0169582Y0274956D03*
X0169582Y0272398D03*
X0169582Y0269839D03*
X0169582Y0267280D03*
X0169582Y0264720D03*
X0169582Y0262161D03*
X0169582Y0259602D03*
X0169582Y0257043D03*
X0169582Y0254485D03*
D19*
X0115843Y0284504D03*
X0106000Y0284504D03*
X0096157Y0284504D03*
X0096157Y0297496D03*
X0106000Y0297496D03*
X0115843Y0297496D03*
D20*
X0171157Y0041000D03*
X0190843Y0041000D03*
D21*
X0190000Y0041500D01*
X0182800Y0048700D01*
X0182800Y0255700D01*
X0186400Y0259300D01*
X0191800Y0259300D01*
X0192417Y0259602D01*
X0192417Y0257043D02*
X0191800Y0256600D01*
X0189100Y0256600D01*
X0186400Y0253900D01*
X0192417Y0254485D02*
X0192700Y0253900D01*
X0222400Y0253900D01*
X0252100Y0224200D01*
X0325900Y0224200D01*
X0340300Y0209800D01*
X0340300Y0193600D01*
X0344800Y0189100D01*
X0344900Y0188800D01*
X0344800Y0188200D01*
X0344800Y0163900D01*
X0344900Y0163200D01*
X0327700Y0163000D02*
X0344800Y0145900D01*
X0344800Y0139600D01*
X0344900Y0138800D01*
X0344800Y0138700D01*
X0344800Y0113500D01*
X0344900Y0113200D01*
X0344800Y0112600D01*
X0344800Y0089200D01*
X0344900Y0088800D01*
X0344800Y0088300D01*
X0344800Y0064000D01*
X0344900Y0063200D01*
X0327700Y0064000D02*
X0327100Y0063200D01*
X0327700Y0064000D02*
X0327700Y0088300D01*
X0327100Y0088800D01*
X0327100Y0113200D02*
X0327700Y0113500D01*
X0327700Y0138700D01*
X0327100Y0138800D01*
X0327700Y0163000D02*
X0327100Y0163200D01*
X0327700Y0163900D01*
X0327700Y0188200D01*
X0327100Y0188800D01*
X0326800Y0189100D01*
X0271900Y0189100D01*
X0271900Y0179200D01*
X0268300Y0175600D01*
X0268300Y0168400D01*
X0267693Y0167535D01*
X0268300Y0167500D01*
X0271900Y0163900D01*
X0271900Y0128800D01*
X0268300Y0125200D01*
X0268300Y0118000D01*
X0267693Y0117535D01*
X0268300Y0117100D01*
X0271900Y0113500D01*
X0271900Y0079300D01*
X0268300Y0075700D01*
X0268300Y0067600D01*
X0267693Y0067535D01*
X0261000Y0067535D02*
X0260200Y0067600D01*
X0260200Y0071200D01*
X0256600Y0074800D01*
X0252100Y0074800D01*
X0214300Y0037000D01*
X0167500Y0037000D01*
X0163900Y0040600D01*
X0163900Y0262000D01*
X0166600Y0264700D01*
X0169300Y0264700D01*
X0169582Y0264720D01*
X0169582Y0259602D02*
X0169300Y0259300D01*
X0166600Y0259300D01*
X0165700Y0258400D01*
X0165700Y0124300D01*
X0167500Y0122500D01*
X0169300Y0132400D02*
X0169300Y0253900D01*
X0169582Y0254485D01*
X0170200Y0256600D02*
X0169582Y0257043D01*
X0170200Y0256600D02*
X0172900Y0256600D01*
X0181000Y0248500D01*
X0181000Y0050500D01*
X0172000Y0041500D01*
X0171157Y0041000D01*
X0166600Y0035200D02*
X0222400Y0035200D01*
X0253900Y0066700D01*
X0254307Y0067535D01*
X0251200Y0077500D02*
X0250300Y0078400D01*
X0250300Y0123400D01*
X0253000Y0126100D01*
X0250300Y0128800D01*
X0250300Y0172900D01*
X0252100Y0174700D01*
X0261100Y0174700D01*
X0267400Y0181000D01*
X0267400Y0183700D01*
X0267693Y0184465D01*
X0268300Y0184600D01*
X0268300Y0208900D01*
X0271900Y0213400D02*
X0268300Y0217000D01*
X0267693Y0217535D01*
X0271900Y0213400D02*
X0271900Y0189100D01*
X0261100Y0184600D02*
X0261000Y0184465D01*
X0261100Y0184600D02*
X0261100Y0217000D01*
X0261000Y0217535D01*
X0254800Y0217000D02*
X0254307Y0217535D01*
X0254800Y0217000D02*
X0254800Y0184600D01*
X0254307Y0184465D01*
X0254307Y0167535D02*
X0254800Y0167500D01*
X0254800Y0135100D01*
X0254307Y0134465D01*
X0261000Y0134465D02*
X0261100Y0135100D01*
X0261100Y0167500D01*
X0261000Y0167535D01*
X0267693Y0134465D02*
X0267400Y0134200D01*
X0267400Y0131500D01*
X0262900Y0127000D01*
X0253900Y0127000D01*
X0253000Y0126100D01*
X0254307Y0117535D02*
X0254800Y0117100D01*
X0254800Y0084700D01*
X0254307Y0084465D01*
X0261000Y0084465D02*
X0261100Y0084700D01*
X0261100Y0117100D01*
X0261000Y0117535D01*
X0267693Y0084465D02*
X0267400Y0083800D01*
X0267400Y0081100D01*
X0263800Y0077500D01*
X0251200Y0077500D01*
X0166600Y0035200D02*
X0162100Y0039700D01*
X0162100Y0264700D01*
X0167500Y0270100D01*
X0169300Y0270100D01*
X0169582Y0269839D01*
X0169300Y0277300D02*
X0169582Y0277515D01*
X0169300Y0277300D02*
X0169300Y0298000D01*
X0166600Y0300700D01*
X0166000Y0301500D01*
X0166600Y0301600D01*
X0172000Y0307000D01*
X0198100Y0307000D01*
X0267400Y0237700D01*
X0267400Y0235000D01*
X0267693Y0234465D01*
X0268300Y0234100D01*
X0271000Y0231400D01*
X0272800Y0231400D01*
X0251200Y0227800D02*
X0334000Y0227800D01*
X0344800Y0217000D01*
X0344800Y0213400D01*
X0344900Y0213200D01*
X0334000Y0227800D02*
X0344800Y0238600D01*
X0344900Y0238800D01*
X0327100Y0213200D02*
X0327700Y0212500D01*
X0327700Y0189100D01*
X0327100Y0188800D01*
X0251200Y0227800D02*
X0222400Y0256600D01*
X0192700Y0256600D01*
X0192417Y0257043D01*
X0192417Y0267280D02*
X0191800Y0267400D01*
X0189100Y0267400D01*
X0176500Y0280000D01*
X0176500Y0299800D01*
X0176000Y0300500D01*
X0186000Y0301500D02*
X0186400Y0300700D01*
X0186400Y0272800D01*
X0189100Y0270100D01*
X0191800Y0270100D01*
X0192417Y0269839D01*
X0192700Y0277300D02*
X0192417Y0277515D01*
X0192700Y0277300D02*
X0192700Y0297100D01*
X0195400Y0299800D01*
X0196000Y0300500D01*
X0119800Y0308800D02*
X0325900Y0308800D01*
X0363700Y0271000D01*
X0364425Y0270528D01*
X0119800Y0308800D02*
X0109000Y0298000D01*
X0106300Y0298000D01*
X0106000Y0297496D01*
X0106300Y0297100D01*
X0106300Y0285400D01*
X0106000Y0284504D01*
X0096400Y0285400D02*
X0096157Y0284504D01*
X0096400Y0285400D02*
X0096400Y0297100D01*
X0096157Y0297496D01*
D22*
X0186400Y0253900D03*
X0268300Y0208900D03*
X0272800Y0231400D03*
X0169300Y0132400D03*
X0167500Y0122500D03*
M02*
