G75*
%MOIN*%
%OFA0B0*%
%FSLAX25Y25*%
%IPPOS*%
%LPD*%
%AMOC8*
5,1,8,0,0,1.08239X$1,22.5*
%
%ADD10C,0.00000*%
%ADD11C,0.01100*%
%ADD12R,0.06299X0.07087*%
%ADD13R,0.07400X0.07400*%
%ADD14C,0.07400*%
%ADD15R,0.07874X0.04331*%
%ADD16R,0.06299X0.07098*%
%ADD17R,0.04724X0.01181*%
%ADD18C,0.01000*%
%ADD19C,0.04000*%
D10*
X0001000Y0004554D02*
X0001000Y0114515D01*
X0139701Y0114515D01*
X0139701Y0004554D01*
X0001000Y0004554D01*
D11*
X0006550Y0095104D02*
X0010487Y0095104D01*
X0012995Y0096088D02*
X0013980Y0097072D01*
X0016932Y0097072D01*
X0016932Y0098056D02*
X0016932Y0095104D01*
X0013980Y0095104D01*
X0012995Y0096088D01*
X0013980Y0099041D02*
X0015948Y0099041D01*
X0016932Y0098056D01*
X0019441Y0099041D02*
X0022394Y0099041D01*
X0023378Y0098056D01*
X0023378Y0096088D01*
X0022394Y0095104D01*
X0019441Y0095104D01*
X0019441Y0101009D01*
X0019441Y0105104D02*
X0019441Y0109041D01*
X0022394Y0109041D01*
X0023378Y0108056D01*
X0023378Y0105104D01*
X0025886Y0106088D02*
X0026871Y0107072D01*
X0029823Y0107072D01*
X0029823Y0108056D02*
X0029823Y0105104D01*
X0026871Y0105104D01*
X0025886Y0106088D01*
X0026871Y0109041D02*
X0028839Y0109041D01*
X0029823Y0108056D01*
X0032332Y0109041D02*
X0034300Y0109041D01*
X0033316Y0110025D02*
X0033316Y0106088D01*
X0034300Y0105104D01*
X0036629Y0105104D02*
X0036629Y0111009D01*
X0037613Y0109041D02*
X0039582Y0109041D01*
X0040566Y0108056D01*
X0040566Y0105104D01*
X0043074Y0106088D02*
X0044059Y0107072D01*
X0047011Y0107072D01*
X0047011Y0108056D02*
X0047011Y0105104D01*
X0044059Y0105104D01*
X0043074Y0106088D01*
X0044059Y0109041D02*
X0046027Y0109041D01*
X0047011Y0108056D01*
X0049520Y0109041D02*
X0052473Y0109041D01*
X0053457Y0108056D01*
X0053457Y0105104D01*
X0049520Y0105104D02*
X0049520Y0109041D01*
X0037613Y0109041D02*
X0036629Y0108056D01*
X0035285Y0101009D02*
X0033316Y0101009D01*
X0032332Y0100025D01*
X0035285Y0101009D02*
X0036269Y0100025D01*
X0036269Y0099041D01*
X0032332Y0095104D01*
X0036269Y0095104D01*
X0016932Y0106088D02*
X0016932Y0108056D01*
X0015948Y0109041D01*
X0013980Y0109041D01*
X0012995Y0108056D01*
X0012995Y0106088D01*
X0013980Y0105104D01*
X0015948Y0105104D01*
X0016932Y0106088D01*
X0010487Y0111009D02*
X0008518Y0111009D01*
X0009503Y0111009D02*
X0009503Y0106088D01*
X0008518Y0105104D01*
X0007534Y0105104D01*
X0006550Y0106088D01*
X0006550Y0101009D02*
X0006550Y0095104D01*
X0062411Y0105104D02*
X0064379Y0107072D01*
X0066348Y0105104D01*
X0066348Y0111009D01*
X0068856Y0109041D02*
X0069841Y0109041D01*
X0069841Y0105104D01*
X0070825Y0105104D02*
X0068856Y0105104D01*
X0073153Y0105104D02*
X0075122Y0105104D01*
X0074138Y0105104D02*
X0074138Y0111009D01*
X0073153Y0111009D01*
X0069841Y0111009D02*
X0069841Y0111993D01*
X0062411Y0111009D02*
X0062411Y0105104D01*
X0077450Y0105104D02*
X0080403Y0105104D01*
X0081387Y0106088D01*
X0080403Y0107072D01*
X0078435Y0107072D01*
X0077450Y0108056D01*
X0078435Y0109041D01*
X0081387Y0109041D01*
X0083896Y0108056D02*
X0083896Y0106088D01*
X0084880Y0105104D01*
X0086848Y0105104D01*
X0087833Y0106088D01*
X0087833Y0108056D01*
X0086848Y0109041D01*
X0084880Y0109041D01*
X0083896Y0108056D01*
X0090341Y0109041D02*
X0090341Y0105104D01*
X0094278Y0105104D02*
X0094278Y0108056D01*
X0093294Y0109041D01*
X0090341Y0109041D01*
D12*
X0046512Y0029554D03*
X0035488Y0029554D03*
D13*
X0121500Y0099554D03*
D14*
X0120500Y0089554D03*
X0121500Y0079554D03*
X0120500Y0069554D03*
D15*
X0073874Y0036247D03*
X0073874Y0029554D03*
X0073874Y0022861D03*
X0058126Y0022861D03*
X0058126Y0029554D03*
X0058126Y0036247D03*
D16*
X0090402Y0034554D03*
X0090402Y0024554D03*
X0101598Y0024554D03*
X0101598Y0034554D03*
X0046598Y0079554D03*
X0035402Y0079554D03*
D17*
X0054582Y0076069D03*
X0054582Y0073510D03*
X0054582Y0070952D03*
X0054582Y0068392D03*
X0054582Y0065833D03*
X0054582Y0063274D03*
X0054582Y0060715D03*
X0054582Y0058156D03*
X0054582Y0055597D03*
X0054582Y0053039D03*
X0077417Y0053039D03*
X0077417Y0055597D03*
X0077417Y0058156D03*
X0077417Y0060715D03*
X0077417Y0063274D03*
X0077417Y0065833D03*
X0077417Y0068392D03*
X0077417Y0070952D03*
X0077417Y0073510D03*
X0077417Y0076069D03*
D18*
X0078200Y0075854D01*
X0098000Y0075854D01*
X0112400Y0081254D02*
X0120500Y0089354D01*
X0120500Y0089554D01*
X0126800Y0094754D02*
X0122300Y0099254D01*
X0121500Y0099554D01*
X0126800Y0094754D02*
X0126800Y0068654D01*
X0101600Y0043454D01*
X0101600Y0035354D01*
X0101598Y0034554D01*
X0101600Y0034454D01*
X0101600Y0024554D01*
X0101598Y0024554D01*
X0100700Y0024554D01*
X0095300Y0019154D01*
X0053000Y0019154D01*
X0046700Y0025454D01*
X0046700Y0029054D01*
X0046512Y0029554D01*
X0046700Y0029954D01*
X0046700Y0079454D01*
X0046598Y0079554D01*
X0050300Y0084854D02*
X0040400Y0084854D01*
X0035900Y0080354D01*
X0035402Y0079554D01*
X0035900Y0079454D01*
X0035900Y0029954D01*
X0035488Y0029554D01*
X0050300Y0035354D02*
X0055700Y0029954D01*
X0057500Y0029954D01*
X0058126Y0029554D01*
X0058126Y0036247D02*
X0058400Y0036254D01*
X0058400Y0038954D01*
X0074600Y0055154D01*
X0077300Y0055154D01*
X0077417Y0055597D01*
X0077417Y0065833D02*
X0077300Y0065954D01*
X0074600Y0065954D01*
X0073700Y0066854D01*
X0073700Y0077654D01*
X0075500Y0079454D01*
X0121400Y0079454D01*
X0121500Y0079554D01*
X0112400Y0081254D02*
X0053900Y0081254D01*
X0050300Y0084854D01*
X0053900Y0081254D02*
X0053900Y0075854D01*
X0054582Y0076069D01*
X0054582Y0055597D02*
X0053900Y0055154D01*
X0051200Y0055154D01*
X0050300Y0054254D01*
X0050300Y0035354D01*
X0073874Y0036247D02*
X0074600Y0035354D01*
X0089900Y0035354D01*
X0090402Y0034554D01*
X0090402Y0024554D02*
X0080900Y0024554D01*
X0076400Y0029054D01*
X0074600Y0029054D01*
X0073874Y0029554D01*
X0077417Y0068392D02*
X0078200Y0068654D01*
X0119600Y0068654D01*
X0120500Y0069554D01*
D19*
X0098000Y0075854D03*
M02*
